<?xml version="1.0" standalone="no"?>
<!DOCTYPE svg PUBLIC "-//W3C//DTD SVG 20010904//EN"
 "http://www.w3.org/TR/2001/REC-SVG-20010904/DTD/svg10.dtd">
<svg version="1.0" xmlns="http://www.w3.org/2000/svg"
 width="1920.000000pt" height="960.000000pt" viewBox="0 0 1920.000000 960.000000"
 preserveAspectRatio="xMidYMid meet">

<g transform="translate(0.000000,960.000000) scale(0.100000,-0.100000)"
fill="#000000" stroke="none">
<path d="M0 4800 l0 -4800 9600 0 9600 0 0 4800 0 4800 -9600 0 -9600 0 0
-4800z m10295 3742 c38 -27 65 -140 36 -150 -5 -2 -15 -19 -21 -38 -12 -35
-36 -45 -46 -19 -4 8 -14 15 -23 15 -18 0 -92 50 -75 50 5 0 0 6 -11 13 -15 9
-193 13 -725 15 l-705 3 -17 -21 c-10 -12 -22 -19 -28 -15 -6 4 -9 2 -8 -3 2
-6 -51 -63 -116 -128 -66 -66 -116 -113 -112 -106 4 6 4 12 -1 12 -4 0 -17
-18 -27 -40 -11 -22 -23 -40 -28 -40 -5 0 -48 -40 -96 -89 -62 -62 -88 -83
-89 -71 -1 10 7 26 18 36 10 9 19 14 19 10 0 -3 11 1 25 10 14 9 22 20 19 25
-4 7 118 141 206 225 8 8 62 62 120 119 l105 105 625 1 c344 0 666 4 716 7 82
6 93 10 122 37 28 26 58 40 97 44 6 0 15 -3 20 -7z m-2180 -713 c-9 -17 -19
-28 -22 -25 -3 3 0 12 7 21 7 8 9 15 4 15 -8 0 16 19 24 20 1 0 -5 -14 -13
-31z m-73 -559 c25 -26 29 -36 24 -63 -14 -72 -96 -97 -140 -43 l-21 27 -665
6 c-466 4 -667 9 -672 17 -5 7 -8 7 -8 -2 0 -12 -37 -13 -108 -2 -2 0 0 5 3
10 4 6 23 10 43 9 20 -1 345 2 722 6 l684 8 27 28 c36 38 72 38 111 -1z m2426
-41 c26 1 39 -5 55 -26 12 -15 21 -31 19 -36 -1 -5 3 -7 9 -5 6 2 62 -47 125
-110 80 -80 111 -118 108 -130 -5 -14 -4 -14 4 -3 8 11 35 -10 129 -105 65
-65 117 -123 115 -129 -2 -5 0 -7 4 -2 11 10 205 -185 199 -201 -3 -7 0 -10 5
-7 6 4 23 -7 39 -23 l29 -29 594 4 c326 1 647 5 712 7 116 5 120 6 148 35 32
33 59 41 101 29 16 -4 39 -2 52 4 47 21 55 7 55 -95 0 -80 -3 -97 -19 -111
-18 -17 -19 -16 -26 25 -7 42 -8 42 -21 18 -7 -13 -13 -20 -14 -15 0 6 -5 5
-12 -2 -27 -27 -107 -5 -129 36 -15 26 -48 30 -50 5 -1 -16 -2 -16 -6 -2 -2
10 -14 20 -26 23 -12 3 -325 6 -696 6 l-674 0 -112 112 c-63 62 -111 116 -108
120 2 5 0 7 -5 6 -14 -5 -267 255 -264 270 2 8 -1 11 -8 7 -11 -7 -180 158
-180 176 0 5 -4 9 -10 9 -5 0 -10 6 -10 14 0 8 -8 13 -17 12 -12 -1 -17 5 -15
16 2 11 -2 16 -10 13 -7 -2 -22 10 -33 27 l-20 31 -275 -4 c-544 -8 -898 -3
-921 12 -8 5 -9 9 -4 9 53 2 181 14 185 18 3 2 217 1 475 -3 259 -4 485 -6
503 -6z m399 -1175 c63 -63 -30 -163 -101 -109 -11 8 -16 15 -12 15 4 0 1 7
-8 15 -12 13 -57 15 -273 15 -229 1 -255 2 -233 15 29 17 66 19 75 5 3 -5 25
-9 48 -8 l42 1 -45 7 c-26 4 41 8 162 8 l206 2 30 30 c38 37 74 39 109 4z
m-834 -61 c-7 -2 -19 -2 -25 0 -7 3 -2 5 12 5 14 0 19 -2 13 -5z m104 1 c-3
-3 -12 -4 -19 -1 -8 3 -5 6 6 6 11 1 17 -2 13 -5z m66 -1 c-7 -2 -19 -2 -25 0
-7 3 -2 5 12 5 14 0 19 -2 13 -5z m-549 -338 c37 -34 35 -76 -6 -110 -37 -31
-72 -28 -103 11 l-21 24 -659 3 c-610 2 -662 3 -685 20 -23 16 5 17 661 17
l685 0 22 30 c28 38 68 40 106 5z m1211 -400 c17 -16 25 -35 25 -57 0 -39 -7
-51 -37 -67 -38 -19 -73 -13 -103 19 l-27 29 -884 2 c-895 1 -1199 6 -1199 19
0 4 201 8 448 9 338 2 1511 9 1634 11 9 0 19 8 23 19 13 43 84 53 120 16z
m-400 -789 c7 -2 19 2 25 9 7 8 17 12 22 9 12 -8 -1 -111 -19 -146 -16 -33 -1
-38 30 -10 18 16 19 16 16 -3 -2 -10 -22 -32 -44 -47 -39 -27 -40 -27 -56 -8
-9 10 -29 22 -45 26 -31 8 -76 38 -68 46 23 24 -73 27 -975 29 -525 1 -946 6
-935 10 10 4 13 8 6 8 -7 1 -10 6 -7 11 7 12 215 14 215 2 0 -4 37 -5 83 -1
45 3 411 7 812 8 402 1 746 5 765 9 30 7 35 12 38 40 2 18 7 32 13 32 5 0 9
-4 9 -10 0 -17 64 2 80 23 15 21 15 21 18 -5 2 -14 9 -29 17 -32z m-2595 -66
l25 -8 -25 -1 c-14 0 -32 4 -40 9 -13 9 -13 10 0 9 8 -1 26 -5 40 -9z m290 0
c0 -5 -13 -10 -30 -10 -16 0 -30 5 -30 10 0 6 14 10 30 10 17 0 30 -4 30 -10z
m140 -4 c0 -2 -7 -9 -15 -16 -13 -11 -14 -10 -9 4 5 14 24 23 24 12z m53 -3
c-7 -2 -19 -2 -25 0 -7 3 -2 5 12 5 14 0 19 -2 13 -5z m10 -20 c-13 -2 -33 -2
-45 0 -13 2 -3 4 22 4 25 0 35 -2 23 -4z m486 -1139 c42 -35 38 -86 -8 -121
-36 -28 -121 -2 -121 37 0 7 -315 10 -932 10 -513 0 -942 2 -953 4 -11 3 -31
5 -45 6 -24 1 -24 1 -5 12 14 9 275 12 971 14 l951 3 31 30 c38 38 70 39 111
5z m4025 -389 c38 -25 51 -67 32 -104 -30 -58 -82 -67 -127 -22 l-29 29 -721
6 -722 6 -204 -203 c-112 -111 -209 -201 -214 -199 -6 1 -8 -2 -5 -7 6 -10
-299 -317 -336 -338 -13 -7 -19 -12 -14 -13 5 0 -1 -11 -14 -25 -21 -22 -32
-25 -92 -25 -37 0 -68 4 -68 10 0 5 -35 11 -77 13 -56 2 -42 4 48 5 131 2 192
9 184 22 -5 9 47 56 59 52 5 -2 6 4 3 13 -4 8 -2 15 2 15 5 0 26 18 47 40 20
21 41 37 46 34 5 -3 7 -1 6 4 -2 5 67 79 152 165 85 85 190 192 233 236 44 45
84 78 89 74 6 -3 8 -2 5 4 -3 5 27 42 66 81 l73 72 727 6 728 6 29 29 c32 33
59 36 94 14z m-2831 -872 c-7 -2 -19 -2 -25 0 -7 3 -2 5 12 5 14 0 19 -2 13
-5z m240 -20 c-7 -2 -21 -2 -30 0 -10 3 -4 5 12 5 17 0 24 -2 18 -5z m-229
-335 c38 -35 41 -61 10 -97 -36 -43 -84 -43 -116 -1 l-22 30 -333 0 c-183 0
-333 3 -333 8 0 4 24 7 52 7 29 1 179 5 333 10 l280 8 27 29 c32 34 68 36 102
6z m-929 -58 c-3 -5 -16 -10 -28 -9 -20 1 -20 2 3 9 14 4 26 8 28 9 2 1 0 -3
-3 -9z m2515 -293 c0 -6 13 -18 28 -25 20 -8 33 -25 42 -51 23 -71 -14 -121
-91 -121 -40 0 -51 5 -71 29 -14 16 -38 31 -59 34 -19 4 -521 7 -1116 8 -842
2 -1083 5 -1083 14 0 19 122 26 136 8 10 -11 13 -11 16 -1 4 11 166 13 849 15
464 2 930 4 1035 5 l190 3 45 47 c43 45 79 61 79 35z"/>
<path d="M8386 8113 c-6 -14 -5 -15 5 -6 7 7 10 15 7 18 -3 3 -9 -2 -12 -12z"/>
</g>
</svg>
